<?xml version="1.0" encoding="UTF-8" standalone="no"?>
<svg width="28px" height="26px" viewBox="0 0 28 26" version="1.1" xmlns="http://www.w3.org/2000/svg" xmlns:xlink="http://www.w3.org/1999/xlink" xmlns:sketch="http://www.bohemiancoding.com/sketch/ns">
    <!-- Generator: Sketch 3.3.2 (12043) - http://www.bohemiancoding.com/sketch -->
    <title>Group</title>
    <desc>Created with Sketch.</desc>
    <defs></defs>
    <g id="Page-1" stroke="none" stroke-width="1" fill="none" fill-rule="evenodd" sketch:type="MSPage">
        <g id="Custom-Preset-Copy" sketch:type="MSArtboardGroup" transform="translate(-45.000000, -160.000000)">
            <g id="Group" sketch:type="MSLayerGroup" transform="translate(45.000000, 160.000000)">
                <path d="M25.76875,2.88888889 L11.15625,2.88888889 C10.745,2.88888889 10.22,1.99513889 9.5375,1.17361111 C8.91625,0.424305556 8.25125,0 7.74375,0 L2.4675,0 C1.11125,0 0,0.803472222 0,2.19375 L0,23.3729167 C0,24.7722222 1.11125,26 2.4675,26 L25.76875,26 C27.125,26 28,24.7722222 28,23.3729167 L28,5.12777778 C28,3.72847222 27.125,2.88888889 25.76875,2.88888889 L25.76875,2.88888889 Z" id="Path" fill="#000000" sketch:type="MSShapeGroup"></path>
                <path d="M25.76875,24.5555556 L2.4675,24.5555556 C1.89875,24.5555556 1.4,23.9958333 1.4,23.3729167 L1.4,8.66666667 L26.6,8.66666667 L26.6,23.3729167 C26.6,23.9145833 26.3725,24.5555556 25.76875,24.5555556 L25.76875,24.5555556 Z" id="Shape" fill="#365CBF" sketch:type="MSShapeGroup"></path>
                <path d="M2.4675,1.44444444 L6.3,1.44444444 L7.28875,1.44444444 C7.63,1.44444444 8.04125,1.58888889 8.54,2.19375 C9.59875,3.48472222 9.89625,4.33333333 11.15625,4.33333333 L25.76875,4.33333333 C26.34625,4.33333333 26.6,4.53194444 26.6,5.12777778 L26.6,7.22222222 L1.4,7.22222222 L1.4,2.19375 C1.4,1.38125 2.30125,1.44444444 2.4675,1.44444444 L2.4675,1.44444444 Z" id="Path" fill="#365CBF" sketch:type="MSShapeGroup"></path>
            </g>
            <path d="M57.6680357,180.680764 L55.5,180.680764 L55.5,171 L60.2635714,171 C61.3323268,171 62.1695059,171.297532 62.7751339,171.892604 C63.380762,172.487677 63.6835714,173.230296 63.6835714,174.120486 C63.6835714,175.001 63.3782173,175.741201 62.7675,176.341111 C62.1567827,176.941022 61.3221482,177.240972 60.2635714,177.240972 L57.6680357,177.240972 L57.6680357,180.680764 Z M59.9734821,175.426736 C60.4111629,175.426736 60.769954,175.308207 61.0498661,175.071146 C61.3297782,174.834084 61.4697321,174.517201 61.4697321,174.120486 C61.4697321,173.723771 61.3297782,173.406888 61.0498661,173.169826 C60.769954,172.932765 60.4111629,172.814236 59.9734821,172.814236 L57.6680357,172.814236 L57.6680357,175.426736 L59.9734821,175.426736 Z" id="P" fill="#FFFFFF" sketch:type="MSShapeGroup"></path>
        </g>
    </g>
</svg>