<svg width="79px" height="17px" viewBox="0 0 79 17" version="1.1" xmlns="http://www.w3.org/2000/svg" xmlns:xlink="http://www.w3.org/1999/xlink" xmlns:sketch="http://www.bohemiancoding.com/sketch/ns">
    <g id="Page-1" stroke="none" stroke-width="1" fill="none" fill-rule="evenodd" sketch:type="MSPage">
        <g id="Custom-Preset" sketch:type="MSArtboardGroup" transform="translate(-121.000000, -10.000000)">
            <!-- <rect id="Rectangle-1" stroke="#D0D5D7" fill="#FAFAFA" sketch:type="MSShapeGroup" x="0" y="0" width="320" height="320"></rect> -->
            <!-- <rect id="Rectangle-4" fill="#FFFFFF" sketch:type="MSShapeGroup" x="0" y="0" width="320" height="37"></rect> -->
            <path d="M125.698,26.528 C124.197992,26.528 122.950005,26.0960043 121.954,25.232 L122.98,23.576 C123.628003,24.2960036 124.533994,24.656 125.698,24.656 C126.346003,24.656 126.906998,24.4850017 127.381,24.143 C127.855002,23.8009983 128.092,23.2400039 128.092,22.46 L128.092,21.578 C127.371996,22.4900046 126.478005,22.946 125.41,22.946 C124.281994,22.946 123.361004,22.5590039 122.647,21.785 C121.932996,21.0109961 121.576,19.922007 121.576,18.518 C121.576,17.125993 121.932996,16.0400039 122.647,15.26 C123.361004,14.4799961 124.281994,14.09 125.41,14.09 C126.490005,14.09 127.383996,14.5339956 128.092,15.422 L128.092,14.306 L130.396,14.306 L130.396,22.406 C130.396,23.198004 130.255001,23.8759972 129.973,24.44 C129.690999,25.0040028 129.310002,25.4299986 128.83,25.718 C128.349998,26.0060014 127.855003,26.2129994 127.345,26.339 C126.834997,26.4650006 126.286003,26.528 125.698,26.528 L125.698,26.528 Z M126.13,20.912 C126.502002,20.912 126.873998,20.816001 127.246,20.624 C127.618002,20.431999 127.899999,20.1980014 128.092,19.922 L128.092,17.114 C127.899999,16.8259986 127.621002,16.5890009 127.255,16.403 C126.888998,16.2169991 126.514002,16.124 126.13,16.124 C125.469997,16.124 124.939002,16.3399978 124.537,16.772 C124.134998,17.2040022 123.934,17.7859963 123.934,18.518 C123.934,19.2500037 124.134998,19.8319978 124.537,20.264 C124.939002,20.6960022 125.469997,20.912 126.13,20.912 L126.13,20.912 Z M136.696,23.216 C135.303993,23.216 134.191004,22.7750044 133.357,21.893 C132.522996,21.0109956 132.106,19.9280064 132.106,18.644 C132.106,17.3599936 132.522996,16.2800044 133.357,15.404 C134.191004,14.5279956 135.303993,14.09 136.696,14.09 C138.088007,14.09 139.203996,14.5279956 140.044,15.404 C140.884004,16.2800044 141.304,17.3599936 141.304,18.644 C141.304,19.9280064 140.884004,21.0109956 140.044,21.893 C139.203996,22.7750044 138.088007,23.216 136.696,23.216 L136.696,23.216 Z M136.696,21.182 C137.380003,21.182 137.922998,20.9390024 138.325,20.453 C138.727002,19.9669976 138.928,19.3640036 138.928,18.644 C138.928,17.9359965 138.727002,17.3390024 138.325,16.853 C137.922998,16.3669976 137.380003,16.124 136.696,16.124 C136.011997,16.124 135.472002,16.3669976 135.076,16.853 C134.679998,17.3390024 134.482,17.9359965 134.482,18.644 C134.482,19.3640036 134.679998,19.9669976 135.076,20.453 C135.472002,20.9390024 136.011997,21.182 136.696,21.182 L136.696,21.182 Z M147.028,23.216 C145.635993,23.216 144.523004,22.7750044 143.689,21.893 C142.854996,21.0109956 142.438,19.9280064 142.438,18.644 C142.438,17.3599936 142.854996,16.2800044 143.689,15.404 C144.523004,14.5279956 145.635993,14.09 147.028,14.09 C148.420007,14.09 149.535996,14.5279956 150.376,15.404 C151.216004,16.2800044 151.636,17.3599936 151.636,18.644 C151.636,19.9280064 151.216004,21.0109956 150.376,21.893 C149.535996,22.7750044 148.420007,23.216 147.028,23.216 L147.028,23.216 Z M147.028,21.182 C147.712003,21.182 148.254998,20.9390024 148.657,20.453 C149.059002,19.9669976 149.26,19.3640036 149.26,18.644 C149.26,17.9359965 149.059002,17.3390024 148.657,16.853 C148.254998,16.3669976 147.712003,16.124 147.028,16.124 C146.343997,16.124 145.804002,16.3669976 145.408,16.853 C145.011998,17.3390024 144.814,17.9359965 144.814,18.644 C144.814,19.3640036 145.011998,19.9669976 145.408,20.453 C145.804002,20.9390024 146.343997,21.182 147.028,21.182 L147.028,21.182 Z M156.892,26.528 C155.391992,26.528 154.144005,26.0960043 153.148,25.232 L154.174,23.576 C154.822003,24.2960036 155.727994,24.656 156.892,24.656 C157.540003,24.656 158.100998,24.4850017 158.575,24.143 C159.049002,23.8009983 159.286,23.2400039 159.286,22.46 L159.286,21.578 C158.565996,22.4900046 157.672005,22.946 156.604,22.946 C155.475994,22.946 154.555004,22.5590039 153.841,21.785 C153.126996,21.0109961 152.77,19.922007 152.77,18.518 C152.77,17.125993 153.126996,16.0400039 153.841,15.26 C154.555004,14.4799961 155.475994,14.09 156.604,14.09 C157.684005,14.09 158.577996,14.5339956 159.286,15.422 L159.286,14.306 L161.59,14.306 L161.59,22.406 C161.59,23.198004 161.449001,23.8759972 161.167,24.44 C160.884999,25.0040028 160.504002,25.4299986 160.024,25.718 C159.543998,26.0060014 159.049003,26.2129994 158.539,26.339 C158.028997,26.4650006 157.480003,26.528 156.892,26.528 L156.892,26.528 Z M157.324,20.912 C157.696002,20.912 158.067998,20.816001 158.44,20.624 C158.812002,20.431999 159.093999,20.1980014 159.286,19.922 L159.286,17.114 C159.093999,16.8259986 158.815002,16.5890009 158.449,16.403 C158.082998,16.2169991 157.708002,16.124 157.324,16.124 C156.663997,16.124 156.133002,16.3399978 155.731,16.772 C155.328998,17.2040022 155.128,17.7859963 155.128,18.518 C155.128,19.2500037 155.328998,19.8319978 155.731,20.264 C156.133002,20.6960022 156.663997,20.912 157.324,20.912 L157.324,20.912 Z M166.144,23 L163.858,23 L163.858,10.994 L166.144,10.994 L166.144,23 Z M175.918,23 L173.632,23 L173.632,22.1 C173.007997,22.8440037 172.090006,23.216 170.878,23.216 C170.097996,23.216 169.399003,22.9610025 168.781,22.451 C168.162997,21.9409975 167.854,21.2360045 167.854,20.336 C167.854,19.3999953 168.156997,18.6980023 168.763,18.23 C169.369003,17.7619977 170.073996,17.528 170.878,17.528 C172.114006,17.528 173.031997,17.8819965 173.632,18.59 L173.632,17.42 C173.632,16.9759978 173.458002,16.6220013 173.11,16.358 C172.761998,16.0939987 172.300003,15.962 171.724,15.962 C170.775995,15.962 169.930004,16.3039966 169.186,16.988 L168.322,15.458 C169.354005,14.5459954 170.619992,14.09 172.12,14.09 C173.236006,14.09 174.147996,14.3479974 174.856,14.864 C175.564004,15.3800026 175.918,16.2199942 175.918,17.384 L175.918,23 Z M171.796,21.668 C172.648004,21.668 173.259998,21.4160025 173.632,20.912 L173.632,19.832 C173.259998,19.3279975 172.648004,19.076 171.796,19.076 C171.327998,19.076 170.938002,19.1929988 170.626,19.427 C170.313998,19.6610012 170.158,19.981998 170.158,20.39 C170.158,20.786002 170.313998,21.0979989 170.626,21.326 C170.938002,21.5540011 171.327998,21.668 171.796,21.668 L171.796,21.668 Z M181.102,23.216 C180.297996,23.216 179.686002,23.012002 179.266,22.604 C178.845998,22.195998 178.636,21.6080038 178.636,20.84 L178.636,16.304 L177.196,16.304 L177.196,14.306 L178.636,14.306 L178.636,11.93 L180.94,11.93 L180.94,14.306 L182.704,14.306 L182.704,16.304 L180.94,16.304 L180.94,20.228 C180.94,20.5040014 181.011999,20.7319991 181.156,20.912 C181.300001,21.0920009 181.491999,21.182 181.732,21.182 C182.092002,21.182 182.355999,21.0980008 182.524,20.93 L183.01,22.658 C182.589998,23.0300019 181.954004,23.216 181.102,23.216 L181.102,23.216 Z M188.356,23.216 C187.011993,23.216 185.902004,22.7960042 185.026,21.956 C184.149996,21.1159958 183.712,20.0120068 183.712,18.644 C183.712,17.3599936 184.134996,16.2800044 184.981,15.404 C185.827004,14.5279956 186.903993,14.09 188.212,14.09 C189.508006,14.09 190.557996,14.5309956 191.362,15.413 C192.166004,16.2950044 192.568,17.4499929 192.568,18.878 L192.568,19.382 L186.106,19.382 C186.178,19.9580029 186.435998,20.4379981 186.88,20.822 C187.324002,21.2060019 187.899996,21.398 188.608,21.398 C188.992002,21.398 189.408998,21.3200008 189.859,21.164 C190.309002,21.0079992 190.665999,20.7980013 190.93,20.534 L191.938,22.01 C191.061996,22.814004 189.868008,23.216 188.356,23.216 L188.356,23.216 Z M190.354,17.834 C190.318,17.3419975 190.123002,16.898002 189.769,16.502 C189.414998,16.105998 188.896003,15.908 188.212,15.908 C187.563997,15.908 187.060002,16.1029981 186.7,16.493 C186.339998,16.883002 186.13,17.3299975 186.07,17.834 L190.354,17.834 Z M196.51,23 L194.224,23 L194.224,14.306 L196.51,14.306 L196.51,15.494 C196.834002,15.085998 197.247997,14.7500013 197.752,14.486 C198.256003,14.2219987 198.765997,14.09 199.282,14.09 L199.282,16.322 C199.125999,16.2859998 198.916001,16.268 198.652,16.268 C198.267998,16.268 197.860002,16.363999 197.428,16.556 C196.995998,16.748001 196.690001,16.9819986 196.51,17.258 L196.51,23 Z" id="googlater" fill="#C6CCDC" sketch:type="MSShapeGroup"></path>
        </g>
    </g>
</svg>
