<?xml version="1.0" encoding="UTF-8" standalone="no"?>
<svg width="28px" height="26px" viewBox="0 0 28 26" version="1.1" xmlns="http://www.w3.org/2000/svg" xmlns:xlink="http://www.w3.org/1999/xlink" xmlns:sketch="http://www.bohemiancoding.com/sketch/ns">
    <!-- Generator: Sketch 3.3.2 (12043) - http://www.bohemiancoding.com/sketch -->
    <title>Group</title>
    <desc>Created with Sketch.</desc>
    <defs></defs>
    <g id="Page-1" stroke="none" stroke-width="1" fill="none" fill-rule="evenodd" sketch:type="MSPage">
        <g id="Custom-Preset-Copy" sketch:type="MSArtboardGroup" transform="translate(-45.000000, -160.000000)">
            <g id="Group" sketch:type="MSLayerGroup" transform="translate(45.000000, 160.000000)">
                <path d="M25.76875,2.88888889 L11.15625,2.88888889 C10.745,2.88888889 10.22,1.99513889 9.5375,1.17361111 C8.91625,0.424305556 8.25125,0 7.74375,0 L2.4675,0 C1.11125,0 0,0.803472222 0,2.19375 L0,23.3729167 C0,24.7722222 1.11125,26 2.4675,26 L25.76875,26 C27.125,26 28,24.7722222 28,23.3729167 L28,5.12777778 C28,3.72847222 27.125,2.88888889 25.76875,2.88888889 L25.76875,2.88888889 Z" id="Path" fill="#000000" sketch:type="MSShapeGroup"></path>
                <path d="M25.76875,24.5555556 L2.4675,24.5555556 C1.89875,24.5555556 1.4,23.9958333 1.4,23.3729167 L1.4,8.66666667 L26.6,8.66666667 L26.6,23.3729167 C26.6,23.9145833 26.3725,24.5555556 25.76875,24.5555556 L25.76875,24.5555556 Z" id="Shape" fill="#365CBF" sketch:type="MSShapeGroup"></path>
                <path d="M2.4675,1.44444444 L6.3,1.44444444 L7.28875,1.44444444 C7.63,1.44444444 8.04125,1.58888889 8.54,2.19375 C9.59875,3.48472222 9.89625,4.33333333 11.15625,4.33333333 L25.76875,4.33333333 C26.34625,4.33333333 26.6,4.53194444 26.6,5.12777778 L26.6,7.22222222 L1.4,7.22222222 L1.4,2.19375 C1.4,1.38125 2.30125,1.44444444 2.4675,1.44444444 L2.4675,1.44444444 Z" id="Path" fill="#365CBF" sketch:type="MSShapeGroup"></path>
                <path d="M12.6680357,20.6807639 L10.5,20.6807639 L10.5,11 L15.2635714,11 C16.3323268,11 17.1695059,11.2975317 17.7751339,11.8926042 C18.380762,12.4876766 18.6835714,13.2302965 18.6835714,14.1204861 C18.6835714,15.0009998 18.3782173,15.7412007 17.7675,16.3411111 C17.1567827,16.9410215 16.3221482,17.2409722 15.2635714,17.2409722 L12.6680357,17.2409722 L12.6680357,20.6807639 Z M14.9734821,15.4267361 C15.4111629,15.4267361 15.769954,15.3082072 16.0498661,15.0711458 C16.3297782,14.8340845 16.4697321,14.5172011 16.4697321,14.1204861 C16.4697321,13.7237712 16.3297782,13.4068878 16.0498661,13.1698264 C15.769954,12.932765 15.4111629,12.8142361 14.9734821,12.8142361 L12.6680357,12.8142361 L12.6680357,15.4267361 L14.9734821,15.4267361 Z" id="P" fill="#FFFFFF" sketch:type="MSShapeGroup"></path>
            </g>
        </g>
    </g>
</svg>