<?xml version="1.0" encoding="UTF-8" standalone="no"?>
<svg width="27px" height="25px" viewBox="0 0 27 25" version="1.1" xmlns="http://www.w3.org/2000/svg" xmlns:xlink="http://www.w3.org/1999/xlink" xmlns:sketch="http://www.bohemiancoding.com/sketch/ns">
    <!-- Generator: Sketch 3.3.2 (12043) - http://www.bohemiancoding.com/sketch -->
    <title>Group</title>
    <desc>Created with Sketch.</desc>
    <defs></defs>
    <g id="Page-1" stroke="none" stroke-width="1" fill="none" fill-rule="evenodd" sketch:type="MSPage">
        <g id="Custom-Preset-Copy" sketch:type="MSArtboardGroup" transform="translate(-45.000000, -160.000000)" fill="#000000">
            <g id="Folder---Inactive" sketch:type="MSLayerGroup" transform="translate(45.000000, 160.000000)">
                <path d="M24.8484375,2.77777778 L10.7578125,2.77777778 C10.36125,2.77777778 9.855,1.91840278 9.196875,1.12847222 C8.5978125,0.407986111 7.9565625,0 7.4671875,0 L2.379375,0 C1.0715625,0 0,0.772569444 0,2.109375 L0,22.4739583 C0,23.8194444 1.0715625,25 2.379375,25 L24.8484375,25 C26.15625,25 27,23.8194444 27,22.4739583 L27,4.93055556 C27,3.58506944 26.15625,2.77777778 24.8484375,2.77777778 L24.8484375,2.77777778 Z M2.379375,1.38888889 L6.075,1.38888889 L7.0284375,1.38888889 C7.3575,1.38888889 7.7540625,1.52777778 8.235,2.109375 C9.2559375,3.35069444 9.5428125,4.16666667 10.7578125,4.16666667 L24.8484375,4.16666667 C25.4053125,4.16666667 25.65,4.35763889 25.65,4.93055556 L25.65,6.94444444 L1.35,6.94444444 L1.35,2.109375 C1.35,1.328125 2.2190625,1.38888889 2.379375,1.38888889 L2.379375,1.38888889 Z M24.8484375,23.6111111 L2.379375,23.6111111 C1.8309375,23.6111111 1.35,23.0729167 1.35,22.4739583 L1.35,8.33333333 L25.65,8.33333333 L25.65,22.4739583 C25.65,22.9947917 25.430625,23.6111111 24.8484375,23.6111111 L24.8484375,23.6111111 Z" id="Shape" sketch:type="MSShapeGroup"></path>
            </g>
            <path d="M51.0975276,174.933255 L50.2475276,174.933255 L50.2475276,176.633255 L51.0975276,176.633255 L63.5886939,176.633255 L61.6897347,178.532214 L61.088694,179.133255 L62.2907755,180.335336 L62.8918163,179.734295 L65.8918163,176.734295 L66.492857,176.133255 L66.492857,175.459856 C66.492857,175.456865 65.8918163,174.832214 65.8918163,174.832214 L62.8918163,171.832214 L62.2907755,171.231173 L61.088694,172.433255 L61.6897347,173.034296 L63.5886939,174.933255 L51.0975276,174.933255 Z" id="Shape" sketch:type="MSShapeGroup"></path>
        </g>
    </g>
</svg>