<svg xmlns="http://www.w3.org/2000/svg" xmlns:xlink="http://www.w3.org/1999/xlink" version="1.1" x="0px" y="0px" viewBox="0 0 100 100" enable-background="new 0 0 100 100" xml:space="preserve">
  <path d="M50,11.905c-21.006,0-38.095,17.089-38.095,38.095c0,21.006,17.089,38.095,38.095,38.095  c21.006,0,38.095-17.089,38.095-38.095C88.095,28.994,71.006,11.905,50,11.905z M50,84.807c-19.193,0-34.808-15.615-34.808-34.808  c0-19.193,15.615-34.807,34.808-34.807S84.808,30.807,84.808,50C84.808,69.193,69.193,84.807,50,84.807z M68.545,36.626  c0.642,0.642,0.642,1.683,0,2.325L44.122,63.374c-0.321,0.321-0.742,0.482-1.162,0.482s-0.841-0.161-1.162-0.482L31.454,53.032  c-0.642-0.642-0.642-1.683,0-2.325c0.642-0.642,1.683-0.642,2.325,0l9.18,9.18L66.22,36.626  C66.863,35.984,67.903,35.984,68.545,36.626z"/>
</svg>
