<svg xmlns="http://www.w3.org/2000/svg" xmlns:xlink="http://www.w3.org/1999/xlink" version="1.1" x="0px" y="0px" viewBox="0 0 100 100" enable-background="new 0 0 100 100" xml:space="preserve">
  <path fill="#000000" d="M93.7,60.7l-22.1,9.8c-0.5,0.2-0.9,0.6-1.1,1.1l-9.8,22.1c-1,2.2-4.4,1.5-5.3-1.1L36.4,39.5  c-0.8-2.1,0.9-3.9,3.1-3.1l53.1,19C95.2,56.4,95.9,59.8,93.7,60.7z"/>
  <g>
    <path fill="#000000" d="M28.2,31.3L14.6,17.7C14,17,14.2,15.8,15,15c0.8-0.8,2-1,2.7-0.4l13.6,13.6c0.6,0.6,0.5,1.8-0.4,2.7   C30,31.7,28.9,31.9,28.2,31.3z"/>
  </g>
  <g>
    <g>
      <path fill="#000000" d="M31.4,50.2L17.8,63.8c-0.6,0.6-1.8,0.5-2.7-0.4s-1-2-0.4-2.7l13.6-13.6c0.6-0.6,1.8-0.5,2.7,0.4    S32,49.5,31.4,50.2z"/>
    </g>
    <g>
      <path fill="#000000" d="M25.9,41.4H6.6c-0.9,0-1.6-1-1.6-2.1s0.7-2.1,1.6-2.1h19.2c0.9,0,1.6,1,1.6,2.1S26.7,41.4,25.9,41.4z"/>
    </g>
    <g>
      <path fill="#000000" d="M36.9,25.8V6.6c0-0.9,1-1.6,2.1-1.6s2.1,0.7,2.1,1.6v19.2c0,0.9-1,1.6-2.1,1.6S36.9,26.7,36.9,25.8z"/>
    </g>
    <g>
      <path fill="#000000" d="M47,28.1l13.6-13.6c0.6-0.6,1.8-0.5,2.7,0.4c0.8,0.8,1,2,0.4,2.7L50,31.2c-0.6,0.6-1.8,0.5-2.7-0.4    C46.5,29.9,46.3,28.8,47,28.1z"/>
    </g>
  </g>
</svg>
