<svg xmlns="http://www.w3.org/2000/svg" xmlns:xlink="http://www.w3.org/1999/xlink" version="1.1" x="0px" y="0px" viewBox="0 0 100 100" enable-background="new 0 0 100 100" xml:space="preserve">
  <path d="M95,55.4V44.6l-12.9-2.7c-0.8-3.1-2-6.1-3.7-8.8L85.6,22L78,14.4l-11.1,7.2c-2.7-1.6-5.7-2.9-8.8-3.7L55.4,5H44.6l-2.7,12.9  c-3.1,0.8-6.1,2-8.8,3.7L22,14.4L14.4,22l7.2,11.1c-1.6,2.7-2.9,5.7-3.7,8.8L5,44.6v10.8l12.9,2.7c0.8,3.1,2,6.1,3.7,8.8L14.4,78  l7.6,7.6l11.1-7.2c2.7,1.6,5.7,2.9,8.8,3.7L44.6,95h10.8l2.7-12.9c3.1-0.8,6.1-2,8.8-3.7L78,85.6l7.6-7.6l-7.2-11.1  c1.6-2.7,2.9-5.7,3.7-8.8L95,55.4z M50,64.8c-8.2,0-14.8-6.6-14.8-14.8c0-8.2,6.6-14.8,14.8-14.8S64.8,41.8,64.8,50  C64.8,58.2,58.2,64.8,50,64.8z"/>
</svg>
